<svg xmlns="http://www.w3.org/2000/svg" viewBox="0 0 1280 720"><defs><style>.cls-1{fill:#1d1d1b;}.cls-2{fill:#fff;}</style></defs><title>Zeichenfläche 1</title><g id="Ebene_3" data-name="Ebene 3"><rect class="cls-1" x="-5.79" y="-1.53" width="1286.94" height="729.36"/></g><g id="Ebene_2" data-name="Ebene 2"><path class="cls-2" d="M490,411h-3.27V400.36h-.2l-3.27,9.42h-4L476,400.36h-.2V411h-3.27v-17.5h4.27l4.27,12.4h.4l4.27-12.4H490Z"/><path class="cls-2" d="M511,411h-3.6l-1.22-3.82h-6.55L498.45,411h-3.6l5.9-17.5h4.4Zm-5.82-6.92-2-6.07h-.6l-2,6.07Z"/><path class="cls-2" d="M530.07,401.49V411h-2.32l-.37-1.47H527a5.66,5.66,0,0,1-4.42,1.6c-4.67,0-8.12-3.75-8.12-8.9s3.37-8.85,8.27-8.85a7.4,7.4,0,0,1,7.17,5.12h-3.75a3.54,3.54,0,0,0-3.42-1.95c-2.9,0-4.9,2.37-4.9,5.7s2,5.67,5.07,5.67a4.08,4.08,0,0,0,3.87-2v-1.52h-3.75v-2.95Z"/><path class="cls-2" d="M550.22,393.54V411h-3.27L540,399.74h-.32V411h-3.27v-17.5h3.3l6.92,11h.3v-11Z"/><path class="cls-2" d="M568.69,407.91V411H556.92v-17.5h11.52v3.12H560.2v3.95h7.5v3.12h-7.5v4.17Z"/><path class="cls-2" d="M586.49,396.64h-4.72V411h-3.35v-14.4H573.7v-3.1h12.8Z"/><path class="cls-2" d="M595.12,411h-3.47v-17.5h3.47Z"/><path class="cls-2" d="M615.62,405.78a7.29,7.29,0,0,1-7.17,5.37c-4.57,0-7.9-3.75-7.9-8.87s3.3-8.87,7.87-8.87a7.34,7.34,0,0,1,7.2,5.37h-3.77a3.46,3.46,0,0,0-3.37-2.07c-2.85,0-4.47,2.32-4.47,5.57s1.65,5.57,4.52,5.57a3.39,3.39,0,0,0,3.32-2.07Z"/><path class="cls-2" d="M644.32,411h-3.6l-1.22-3.82h-6.55L631.72,411h-3.6l5.9-17.5h4.4Zm-5.82-6.92-2-6.07h-.6l-2,6.07Z"/><path class="cls-2" d="M663,393.54V411h-3.27l-6.92-11.3h-.33V411h-3.27v-17.5h3.3l6.92,11h.3v-11Z"/><path class="cls-2" d="M684,402.29c0,5.67-4.15,8.75-8.75,8.75h-5.55v-17.5h5.55C679.84,393.54,684,396.61,684,402.29Zm-3.42-.08a5,5,0,0,0-5.32-5.37h-2.15v10.9h2.15C678.29,407.73,680.57,405.69,680.57,402.21Z"/><path class="cls-2" d="M712.29,405.78a7.29,7.29,0,0,1-7.17,5.37c-4.57,0-7.9-3.75-7.9-8.87s3.3-8.87,7.87-8.87a7.34,7.34,0,0,1,7.2,5.37h-3.77a3.46,3.46,0,0,0-3.37-2.07c-2.85,0-4.47,2.32-4.47,5.57s1.65,5.57,4.52,5.57a3.39,3.39,0,0,0,3.32-2.07Z"/><path class="cls-2" d="M717,402.29a8.55,8.55,0,1,1,8.57,8.87A8.67,8.67,0,0,1,717,402.29Zm13.65,0c0-3.25-2.08-5.57-5.1-5.57s-5.07,2.32-5.07,5.57,2.07,5.57,5.1,5.57S730.64,405.53,730.64,402.29Z"/><path class="cls-2" d="M753.94,402.29c0,5.67-4.15,8.75-8.75,8.75h-5.55v-17.5h5.55C749.79,393.54,753.94,396.61,753.94,402.29Zm-3.42-.08a5,5,0,0,0-5.32-5.37H743v10.9h2.15C748.24,407.73,750.52,405.69,750.52,402.21Z"/><path class="cls-2" d="M771.51,407.91V411H759.74v-17.5h11.52v3.12H763v3.95h7.5v3.12H763v4.17Z"/><path class="cls-2" d="M786.54,411l-3.72-6.42h-2.08V411h-3.17v-17.5h6.17a5.18,5.18,0,0,1,5.42,5.37A5.56,5.56,0,0,1,786,404l4.22,7Zm-5.8-9.52h2.75a2.37,2.37,0,0,0,2.37-2.55,2.19,2.19,0,0,0-2.37-2.3h-2.75Z"/><path class="cls-2" d="M801.24,411.16c-3.82,0-6.47-2.5-6.47-5.77H798a3,3,0,0,0,3.2,2.67c.85,0,2.55-.3,2.55-1.92,0-1.47-1.42-2.07-2.85-2.62-2.35-.92-5.67-2-5.67-5.37,0-2.95,2.57-4.75,5.7-4.75,3.62,0,5.65,2.42,5.65,4.65h-3.2a2.34,2.34,0,0,0-2.5-1.6c-1.2,0-2.2.6-2.2,1.7s1,1.5,2.67,2.27,5.72,1.8,5.72,5.75C807.09,409.43,804.42,411.16,801.24,411.16Z"/><rect class="cls-2" x="643.15" y="306.79" width="61.51" height="61.51" transform="translate(1347.8 675.09) rotate(180)"/><rect class="cls-2" x="575.79" y="306.79" width="61.51" height="61.51" transform="translate(1213.08 675.09) rotate(180)"/><rect class="cls-1" x="601" y="332" width="11.09" height="11.09" transform="translate(1213.08 675.09) rotate(180)"/><rect class="cls-1" x="651.72" y="315.37" width="44.36" height="44.36" transform="translate(1347.8 675.09) rotate(180)"/></g></svg>