<?xml version="1.0" encoding="utf-8"?>
<!-- Generator: Adobe Illustrator 21.0.0, SVG Export Plug-In . SVG Version: 6.00 Build 0)  -->
<svg version="1.1" xmlns="http://www.w3.org/2000/svg" xmlns:xlink="http://www.w3.org/1999/xlink" x="0px" y="0px"
	 viewBox="0 0 378.5 128" style="enable-background:new 0 0 378.5 128;" xml:space="preserve">
<g id="Ebene_1">
</g>
<g id="Ebene_3">
</g>
<g id="Ebene_2">
	<g>
		<path d="M39.2,115H36v-10.7h-0.2l-3.3,9.4h-4l-3.2-9.4H25V115h-3.3V97.5H26l4.3,12.4h0.4L35,97.5h4.3V115z"/>
		<path d="M60.3,115h-3.6l-1.2-3.8h-6.5l-1.2,3.8h-3.6L50,97.5h4.4L60.3,115z M54.4,108.1l-2-6.1h-0.6l-2,6.1H54.4z"/>
		<path d="M79.3,105.5v9.5H77l-0.4-1.5h-0.3c-0.9,0.9-2.1,1.6-4.4,1.6c-4.7,0-8.1-3.7-8.1-8.9c0-5.1,3.4-8.8,8.3-8.8
			c5.7,0,7.2,5.1,7.2,5.1h-3.7c0,0-0.8-1.9-3.4-1.9c-2.9,0-4.9,2.4-4.9,5.7s2,5.7,5.1,5.7c1.9,0,3.3-0.8,3.9-2v-1.5h-3.7v-2.9H79.3z
			"/>
		<path d="M99.4,97.5V115h-3.3l-6.9-11.3h-0.3V115h-3.3V97.5h3.3l6.9,11h0.3v-11H99.4z"/>
		<path d="M117.9,111.9v3.1h-11.8V97.5h11.5v3.1h-8.2v3.9h7.5v3.1h-7.5v4.2H117.9z"/>
		<path d="M135.7,100.6H131V115h-3.3v-14.4h-4.7v-3.1h12.8V100.6z"/>
		<path d="M144.3,115h-3.5V97.5h3.5V115z"/>
		<path d="M164.8,109.8c-1,3.3-3.8,5.4-7.2,5.4c-4.6,0-7.9-3.7-7.9-8.9s3.3-8.9,7.9-8.9c3.3,0,6.2,2,7.2,5.4h-3.8
			c-0.6-1.4-1.8-2.1-3.4-2.1c-2.8,0-4.5,2.3-4.5,5.6s1.6,5.6,4.5,5.6c1.5,0,2.7-0.7,3.3-2.1H164.8z"/>
		<path d="M193.5,115h-3.6l-1.2-3.8h-6.5l-1.2,3.8h-3.6l5.9-17.5h4.4L193.5,115z M187.7,108.1l-2-6.1h-0.6l-2,6.1H187.7z"/>
		<path d="M212.2,97.5V115h-3.3l-6.9-11.3h-0.3V115h-3.3V97.5h3.3l6.9,11h0.3v-11H212.2z"/>
		<path d="M233.2,106.3c0,5.7-4.1,8.7-8.7,8.7h-5.5V97.5h5.5C229.1,97.5,233.2,100.6,233.2,106.3z M229.8,106.2
			c0-3.5-2.3-5.4-5.3-5.4h-2.1v10.9h2.1C227.5,111.7,229.8,109.7,229.8,106.2z"/>
		<path d="M261.5,109.8c-1,3.3-3.8,5.4-7.2,5.4c-4.6,0-7.9-3.7-7.9-8.9s3.3-8.9,7.9-8.9c3.3,0,6.2,2,7.2,5.4h-3.8
			c-0.7-1.4-1.8-2.1-3.4-2.1c-2.8,0-4.5,2.3-4.5,5.6s1.7,5.6,4.5,5.6c1.5,0,2.7-0.7,3.3-2.1H261.5z"/>
		<path d="M266.2,106.3c0-5.1,4-8.9,8.5-8.9c4.6,0,8.5,3.7,8.5,8.9s-3.9,8.9-8.5,8.9C270.2,115.2,266.2,111.4,266.2,106.3z
			 M279.9,106.3c0-3.2-2.1-5.6-5.1-5.6c-3,0-5.1,2.3-5.1,5.6s2.1,5.6,5.1,5.6S279.9,109.5,279.9,106.3z"/>
		<path d="M303.2,106.3c0,5.7-4.1,8.7-8.7,8.7h-5.5V97.5h5.5C299,97.5,303.2,100.6,303.2,106.3z M299.7,106.2c0-3.5-2.3-5.4-5.3-5.4
			h-2.1v10.9h2.1C297.5,111.7,299.7,109.7,299.7,106.2z"/>
		<path d="M320.7,111.9v3.1H309V97.5h11.5v3.1h-8.2v3.9h7.5v3.1h-7.5v4.2H320.7z"/>
		<path d="M335.8,115l-3.7-6.4H330v6.4h-3.2V97.5h6.2c2.9,0,5.4,1.9,5.4,5.4c0,2.4-1.4,4.2-3.1,5.1l4.2,7H335.8z M330,105.5h2.8
			c1.4,0,2.4-1.1,2.4-2.5s-1-2.3-2.4-2.3H330V105.5z"/>
		<path d="M350.5,115.2c-3.8,0-6.5-2.5-6.5-5.8h3.2c0.3,2.2,2.1,2.7,3.2,2.7c0.8,0,2.5-0.3,2.5-1.9c0-1.5-1.4-2.1-2.8-2.6
			c-2.3-0.9-5.7-2-5.7-5.4c0-2.9,2.6-4.7,5.7-4.7c3.6,0,5.6,2.4,5.6,4.6h-3.2c-0.2-1-1.2-1.6-2.5-1.6c-1.2,0-2.2,0.6-2.2,1.7
			c0,1.1,1,1.5,2.7,2.3c1.8,0.8,5.7,1.8,5.7,5.7C356.3,113.4,353.6,115.2,350.5,115.2z"/>
	</g>
	<path d="M125,10.8v61.5h61.5V10.8H125z M161.3,47.1h-11.1V36h11.1V47.1z"/>
	<path d="M192.4,10.8v61.5h61.5V10.8H192.4z M245.3,63.7h-44.4V19.4h44.4V63.7z"/>
</g>
</svg>
